<?xml version="1.0" standalone="no"?>
<!DOCTYPE svg PUBLIC "-//W3C//DTD SVG 20010904//EN"
 "http://www.w3.org/TR/2001/REC-SVG-20010904/DTD/svg10.dtd">
<svg version="1.0" xmlns="http://www.w3.org/2000/svg"
 width="784.000000pt" height="1168.000000pt" viewBox="0 0 784.000000 1168.000000"
 preserveAspectRatio="xMidYMid meet">

<g transform="translate(0.000000,1168.000000) scale(0.100000,-0.100000)"
fill="#000000" stroke="none">
<path d="M4191 7592 c-5 -10 -96 -294 -201 -632 -254 -812 -289 -924 -414
-1328 -58 -189 -165 -531 -237 -760 -275 -877 -266 -843 -231 -860 9 -5 104
-6 210 -3 214 7 202 2 226 81 8 25 53 171 101 325 48 154 109 350 135 435 173
556 318 1024 355 1140 23 74 81 261 129 415 49 154 137 438 197 630 180 575
172 545 158 561 -9 11 -51 14 -215 14 -185 0 -204 -2 -213 -18z"/>
<path d="M2829 6780 c-112 -48 -382 -163 -599 -255 -217 -92 -519 -220 -670
-285 -151 -64 -320 -136 -375 -159 -55 -23 -106 -50 -113 -59 -15 -20 -17
-433 -2 -463 12 -22 59 -47 163 -88 71 -29 307 -130 627 -271 91 -39 217 -95
280 -122 63 -27 165 -72 225 -98 274 -120 676 -290 684 -290 26 0 31 36 31
265 1 217 0 240 -17 256 -10 10 -182 87 -383 172 -397 169 -896 384 -917 396
-14 7 -8 10 542 242 182 77 375 160 430 184 55 24 150 64 212 90 61 25 117 53
124 61 14 16 22 425 10 471 -13 51 -35 47 -252 -47z"/>
<path d="M4697 6852 c-15 -16 -17 -49 -17 -249 0 -209 2 -231 18 -246 10 -9
155 -75 323 -146 400 -170 880 -375 949 -406 52 -23 53 -24 30 -33 -14 -6 -68
-29 -120 -52 -52 -23 -232 -100 -400 -170 -168 -71 -386 -163 -485 -205 -99
-42 -204 -86 -232 -96 -84 -32 -83 -30 -83 -294 0 -240 3 -255 42 -255 11 0
53 16 96 35 42 19 316 136 607 260 292 125 682 291 867 371 186 79 343 144
348 144 6 0 22 11 35 25 l25 24 0 224 c0 219 0 224 -22 243 -13 11 -115 59
-228 107 -113 47 -548 233 -966 412 -419 179 -764 325 -766 325 -3 0 -12 -8
-21 -18z"/>
</g>
</svg>
